<?xml version="1.0" standalone="no"?>
<!DOCTYPE svg PUBLIC "-//W3C//DTD SVG 20010904//EN"
 "http://www.w3.org/TR/2001/REC-SVG-20010904/DTD/svg10.dtd">
<svg version="1.0" xmlns="http://www.w3.org/2000/svg"
 width="518.000000pt" height="736.000000pt" viewBox="0 0 518.000000 736.000000"
 preserveAspectRatio="xMidYMid meet">
<metadata>
Created by potrace 1.12, written by Peter Selinger 2001-2015
</metadata>
<g transform="translate(0.000000,736.000000) scale(0.100000,-0.100000)"
fill="#000000" stroke="none">
<path d="M4600 6587 c-20 -17 -58 -70 -85 -117 -101 -176 -240 -356 -387 -501
-101 -100 -199 -174 -340 -258 -78 -46 -276 -141 -293 -141 -5 0 -24 -12 -44
-27 -26 -20 -51 -29 -91 -33 l-55 -5 -3 -72 c-2 -56 0 -73 11 -73 21 0 193
-105 287 -175 104 -77 244 -220 294 -297 66 -105 114 -247 153 -458 24 -129
24 -423 -1 -570 -44 -270 -101 -407 -277 -670 -59 -89 -106 -144 -197 -231
l-119 -114 -6 -62 c-8 -72 7 -285 29 -428 20 -130 76 -356 116 -470 34 -96
201 -431 367 -735 56 -102 127 -233 158 -292 l58 -108 38 0 38 0 -29 53 c-93
163 -368 679 -452 847 -104 206 -150 333 -194 530 -39 178 -57 312 -63 476
l-6 151 121 117 c127 123 226 258 317 429 138 258 191 509 182 852 -8 312 -75
565 -198 746 -75 111 -245 264 -408 367 -36 23 -58 43 -52 46 6 4 11 36 11 72
0 44 4 64 13 64 20 0 241 105 330 156 239 140 460 349 628 594 24 36 47 67 50
70 14 12 159 275 156 284 -7 20 -23 15 -57 -17z m-1170 -1152 c0 -15 -6 -25
-14 -25 -8 0 -13 8 -12 18 1 11 -6 17 -19 17 -13 0 -20 -6 -19 -17 1 -10 -2
-18 -7 -18 -5 0 -9 11 -9 25 0 23 4 25 40 25 36 0 40 -2 40 -25z"/>
<path d="M1650 5376 c-262 -108 -447 -253 -583 -457 -159 -240 -217 -471 -251
-1009 -13 -199 -14 -208 -46 -275 -48 -100 -152 -249 -235 -336 -104 -110
-131 -197 -78 -260 24 -29 149 -98 202 -112 25 -6 27 -32 6 -101 -23 -77 -20
-123 11 -151 15 -14 33 -25 40 -25 23 0 25 -18 4 -52 -29 -47 -25 -76 14 -114
19 -18 41 -52 48 -76 14 -41 13 -47 -10 -108 -21 -53 -26 -83 -26 -160 -1 -84
2 -101 27 -152 22 -45 36 -61 71 -78 61 -29 217 -57 386 -69 115 -8 162 -17
236 -41 94 -32 187 -84 236 -134 53 -54 60 -119 44 -416 l-9 -166 33 -114 c20
-71 32 -135 32 -168 -1 -51 -1 -52 27 -52 52 0 55 63 9 211 -32 101 -33 108
-28 244 2 77 4 196 5 265 0 117 -2 129 -28 181 -31 63 -91 116 -193 167 -104
53 -187 72 -364 87 -200 17 -344 46 -377 77 -53 49 -60 173 -18 300 33 101 29
130 -30 218 -39 58 -39 58 21 141 l34 47 -62 11 c-92 16 -95 22 -68 124 33
124 27 132 -135 202 -75 33 -95 51 -95 87 0 44 26 86 100 163 98 102 227 303
258 405 6 19 16 116 22 215 15 252 28 371 56 512 30 154 63 254 121 366 137
266 340 438 658 558 l90 34 -47 3 c-29 2 -48 8 -50 17 -2 11 -15 9 -58 -9z"/>
</g>
</svg>
